<?xml version="1.0" encoding="UTF-8"?>
<svg version="1.1" viewBox="0 0 600 600" xmlns="http://www.w3.org/2000/svg" xmlns:cc="http://creativecommons.org/ns#" xmlns:dc="http://purl.org/dc/elements/1.1/" xmlns:rdf="http://www.w3.org/1999/02/22-rdf-syntax-ns#">
<title>Infocom Logo</title>
<metadata>
<rdf:RDF>
<cc:Work rdf:about="">
<dc:format>image/svg+xml</dc:format>
<dc:type rdf:resource="http://purl.org/dc/dcmitype/StillImage"/>
<dc:title>Infocom Logo</dc:title>
<cc:license rdf:resource=""/>
<dc:description>SVG recreation of the Infocom logo</dc:description>
</cc:Work>
</rdf:RDF>
</metadata>
<rect x=".5" y=".5" width="599" height="599" fill="#b3b3b3" fill-rule="evenodd" stroke="#b3b3b3" stroke-miterlimit="10"/>
<g transform="translate(-134.07 -319.19)">
<g transform="translate(51.885 258)">
<rect x="139.07" y="324.19" width="21.691" height="72.753" ry="12.185"/>
<path d="m175.91 324.19c-2.4018 0-4.609 0.87988-6.4023 2.3535-2.8644 1.9892-4.709 5.092-4.709 8.5996 0 0.77881 0.0934 1.5359 0.26563 2.2676v47.348c0 6.7505 4.8372 12.186 10.846 12.186 6.0085 0 10.846-5.4351 10.846-12.186v-38.727h27.93v38.727c0 6.7505 4.8372 12.186 10.846 12.186 6.0085 0 10.846-5.4351 10.846-12.186v-48.383c0-6.7505-4.8372-12.186-10.846-12.186-0.44749 0-0.88538 0.0391-1.3184 0.0977-0.26898-0.0157-0.53698-0.0352-0.81055-0.0352h-46.381c-0.36549-0.0414-0.7358-0.0625-1.1113-0.0625z"/>
<path d="m251.28 324.19c-6.0085 0-10.846 5.4351-10.846 12.186v48.383c0 6.7505 4.8372 12.186 10.846 12.186 6.0085 0 10.846-5.4351 10.846-12.186v-11.297h37.277c6.7505 0 12.186-4.8574 12.186-10.891 0-6.0332-5.4351-10.891-12.186-10.891h-37.277v-5.6484h37.277c6.7505 0 12.186-4.8554 12.186-10.889s-5.4351-10.891-12.186-10.891h-46.418c-0.15954 0-0.31464 0.0161-0.47266 0.0215-0.40512-0.0511-0.81474-0.084-1.2324-0.084z"/>
<path d="m340.89 324.19c-14.655 0-26.453 11.798-26.453 26.453v18.836c0 14.655 11.798 26.455 26.453 26.455h19.291c14.655 0 26.455-11.8 26.455-26.455v-18.836c0-14.655-11.8-26.453-26.455-26.453zm1.3809 22.477h15.24c3.8786 0 7.002 3.1234 7.002 7.002v15.055c0 3.8786-3.1234 7-7.002 7h-15.24c-3.8786 0-7-3.1214-7-7v-15.055c0-3.8786 3.1214-7.002 7-7.002z"/>
<path d="m550.99 324.25c-6.7505 0-12.186 4.8574-12.186 10.891 0 0.39877 0.026 0.7903 0.0723 1.1777-0.0621 0.52867-0.10352 1.0631-0.10352 1.6113v46.42c0 6.7505 4.8574 12.184 10.891 12.184s10.889-5.4331 10.889-12.184v-38.32h5.3508v38.32c0 6.7505 4.8574 12.184 10.891 12.184s10.911-5.4332 10.889-12.184v-38.32h2.5203l14.543 43.621c2.1352 6.4039 8.4621 10.022 14.186 8.1133 5.7235-1.9084 8.6118-8.6 6.4766-15.004l-14.682-44.035c-0.5011-1.374-0.76824-2.2514-1.1328-3.584-1.2139-5.9099-5.4351-10.891-12.186-10.891z"/>
<path d="m416.89 324.19c-14.655 0-26.453 11.798-26.453 26.453v18.836c0 14.288 11.215 25.856 25.357 26.428v0.125h33.611c6.7505 0 12.186-4.8554 12.186-10.889s-5.4351-10.891-12.186-10.891h-33.611v0.10547c-2.4456-1.0896-4.1445-3.5332-4.1445-6.3926v-15.055c0-3.438 2.4544-6.277 5.7129-6.8789h32.043c6.7505 0 12.186-4.8554 12.186-10.889s-5.4351-10.891-12.186-10.891h-25.395v-0.0625z"/>
<path d="m490.18 324.19c-14.655 0-26.453 11.798-26.453 26.453v18.836c0 14.655 11.798 26.455 26.453 26.455h19.291c14.655 0 26.455-11.8 26.455-26.455v-18.836c0-14.655-11.8-26.453-26.455-26.453zm1.3809 22.477h15.24c3.8786 0 7.002 3.1234 7.002 7.002v15.055c0 3.8786-3.1234 7-7.002 7h-15.24c-3.8786 0-7-3.1214-7-7v-15.055c0-3.8786 3.1214-7.002 7-7.002z"/>
</g>
</g>
</svg>
